# Blender v2.79 (sub 0) OBJ File: 'test.obj'
# www.blender.org
o Cube.001
v 1.000000 0.058142 1.000000
v -1.000000 0.058142 -1.000000
v 1.000000 0.058142 -1.000000
v -1.000000 2.058142 -1.000000
v 0.999999 2.058142 1.000001
v 1.000000 2.058142 -0.999999
v -1.000000 0.058142 1.000000
v 0.000000 2.067071 -1.000000
v 0.000000 4.067071 0.000001
v 0.195090 2.067071 -0.980785
v 0.382683 2.067071 -0.923880
v 0.555570 2.067071 -0.831470
v 0.707107 2.067071 -0.707107
v 0.831470 2.067071 -0.555570
v 0.923880 2.067071 -0.382683
v 0.980785 2.067071 -0.195090
v 1.000000 2.067071 0.000000
v 0.980785 2.067071 0.195090
v 0.923880 2.067071 0.382683
v 0.831470 2.067071 0.555570
v 0.707107 2.067071 0.707107
v 0.555570 2.067071 0.831470
v 0.382683 2.067071 0.923880
v 0.195090 2.067071 0.980785
v 0.000000 2.067071 1.000000
v -0.195091 2.067071 0.980785
v -0.382684 2.067071 0.923879
v -0.555571 2.067071 0.831469
v -0.707107 2.067071 0.707106
v -0.831470 2.067071 0.555570
v -0.923880 2.067071 0.382683
v -0.980785 2.067071 0.195089
v -1.000000 2.067071 -0.000001
v -0.980785 2.067071 -0.195091
v -0.923879 2.067071 -0.382684
v -0.831469 2.067071 -0.555571
v -0.707106 2.067071 -0.707108
v -0.555569 2.067071 -0.831470
v -0.382682 2.067071 -0.923880
v -0.195089 2.067071 -0.980786
v -1.000000 2.058142 1.000000
vn 0.0000 -1.0000 -0.0000
vn -0.0000 1.0000 0.0000
vn 1.0000 0.0000 0.0000
vn -0.0000 -0.0000 1.0000
vn -1.0000 0.0000 0.0000
vn 0.0000 0.0000 -1.0000
vn 0.0878 0.4455 -0.8910
vn 0.2599 0.4455 -0.8567
vn 0.4220 0.4455 -0.7896
vn 0.5680 0.4455 -0.6921
vn 0.6921 0.4455 -0.5680
vn 0.7896 0.4455 -0.4220
vn 0.8567 0.4455 -0.2599
vn 0.8910 0.4455 -0.0878
vn 0.8910 0.4455 0.0878
vn 0.8567 0.4455 0.2599
vn 0.7896 0.4455 0.4220
vn 0.6921 0.4455 0.5680
vn 0.5680 0.4455 0.6921
vn 0.4220 0.4455 0.7896
vn 0.2599 0.4455 0.8567
vn 0.0878 0.4455 0.8910
vn -0.0878 0.4455 0.8910
vn -0.2599 0.4455 0.8567
vn -0.4220 0.4455 0.7896
vn -0.5680 0.4455 0.6921
vn -0.6921 0.4455 0.5680
vn -0.7896 0.4455 0.4220
vn -0.8567 0.4455 0.2599
vn -0.8910 0.4455 0.0878
vn -0.8910 0.4455 -0.0878
vn -0.8567 0.4455 -0.2599
vn -0.7896 0.4455 -0.4220
vn -0.6921 0.4455 -0.5680
vn -0.5680 0.4455 -0.6921
vn -0.4220 0.4455 -0.7896
vn -0.2599 0.4455 -0.8567
vn -0.0878 0.4455 -0.8910
s 1
f 1//1 2//1 3//1
f 4//2 5//2 6//2
f 6//3 1//3 3//3
f 5//4 7//4 1//4
f 7//5 4//5 2//5
f 3//6 4//6 6//6
f 8//7 9//7 10//7
f 10//8 9//8 11//8
f 11//9 9//9 12//9
f 12//10 9//10 13//10
f 13//11 9//11 14//11
f 14//12 9//12 15//12
f 15//13 9//13 16//13
f 16//14 9//14 17//14
f 17//15 9//15 18//15
f 18//16 9//16 19//16
f 19//17 9//17 20//17
f 20//18 9//18 21//18
f 21//19 9//19 22//19
f 22//20 9//20 23//20
f 23//21 9//21 24//21
f 24//22 9//22 25//22
f 25//23 9//23 26//23
f 26//24 9//24 27//24
f 27//25 9//25 28//25
f 28//26 9//26 29//26
f 29//27 9//27 30//27
f 30//28 9//28 31//28
f 31//29 9//29 32//29
f 32//30 9//30 33//30
f 33//31 9//31 34//31
f 34//32 9//32 35//32
f 35//33 9//33 36//33
f 36//34 9//34 37//34
f 37//35 9//35 38//35
f 38//36 9//36 39//36
f 39//37 9//37 40//37
f 40//38 9//38 8//38
f 16//1 24//1 32//1
f 1//1 7//1 2//1
f 4//2 41//2 5//2
f 6//3 5//3 1//3
f 5//4 41//4 7//4
f 7//5 41//5 4//5
f 3//6 2//6 4//6
f 40//1 8//1 10//1
f 10//1 11//1 12//1
f 12//1 13//1 14//1
f 14//1 15//1 12//1
f 15//1 16//1 12//1
f 16//1 17//1 18//1
f 18//1 19//1 16//1
f 19//1 20//1 16//1
f 20//1 21//1 24//1
f 21//1 22//1 24//1
f 22//1 23//1 24//1
f 24//1 25//1 26//1
f 26//1 27//1 28//1
f 28//1 29//1 30//1
f 30//1 31//1 32//1
f 32//1 33//1 34//1
f 34//1 35//1 36//1
f 36//1 37//1 40//1
f 37//1 38//1 40//1
f 38//1 39//1 40//1
f 40//1 10//1 12//1
f 24//1 26//1 32//1
f 26//1 28//1 32//1
f 28//1 30//1 32//1
f 32//1 34//1 40//1
f 34//1 36//1 40//1
f 40//1 12//1 16//1
f 16//1 20//1 24//1
f 40//1 16//1 32//1
