# Blender v2.79 (sub 0) OBJ File: ''
# www.blender.org
o Cylinder002
v 5.810700 -0.000000 2.530500
v 1.332000 0.000001 -3.633800
v -4.326900 25.518400 -3.633796
v -0.426700 23.316900 2.530504
v -5.914700 0.000000 -1.279200
v -10.637700 29.080500 -1.279195
v -5.914700 -0.000001 6.340300
v -10.637700 29.080498 6.340305
v 1.332000 -0.000001 8.694900
v -4.326900 25.518398 8.694903
v 1.954800 71.709396 2.530612
v -0.224100 70.115402 2.301611
v -3.749800 67.536400 2.389111
v -3.749800 67.536400 2.672011
v -0.224100 70.115402 2.759511
v 2.154700 38.853699 0.060706
v 3.717400 36.652199 2.530506
v -0.373800 42.415699 1.004107
v -0.373800 42.415699 4.057007
v 2.154700 38.853699 5.000406
v 9.645100 49.645100 0.060708
v 12.249200 50.357201 2.530608
v 5.431600 48.492802 1.004108
v 5.431600 48.492802 4.057008
v 9.645100 49.645100 5.000408
v 6.466000 60.969601 -0.482790
v 8.645000 62.563599 2.530510
v 2.940300 58.390598 0.668210
v 2.940300 58.390598 4.392910
v 6.466000 60.969601 5.543910
v -7.854100 121.386200 17.109320
v 7.143100 113.865402 23.182419
v 15.395500 112.282402 13.762818
v 13.123900 113.995399 -0.779681
v 3.598900 114.881401 -2.475681
v -10.442500 120.637901 5.993720
v 22.857700 106.768501 -11.621182
v 21.971701 97.547798 -18.194885
v 14.744700 95.622597 -21.077984
v 5.524100 105.147598 -15.923383
v 10.731300 81.581306 -25.810587
v -0.384200 84.169609 -28.351686
v -10.913300 99.166809 -24.386786
v -9.018300 107.419197 -18.237383
v -27.216499 97.628304 -16.275185
v -33.200298 101.300301 -6.433183
v -28.391600 115.240700 -2.924381
v -19.931299 118.105499 -5.895881
v -26.120100 114.253601 11.618119
v -16.387100 120.379898 19.762119
v -29.976200 95.931198 17.097015
v -25.971300 95.512695 25.240416
v -16.381399 107.939896 31.671217
v -8.937900 115.536392 30.950819
v -18.202400 95.075890 36.694016
v -7.086900 92.013794 39.235115
v 9.276600 98.997093 34.980015
v 5.604600 108.839691 33.264820
v 23.216999 96.163696 23.320715
v 26.081800 105.140999 11.909018
v 28.614100 102.755096 -3.849083
v 29.362499 91.639503 -2.383585
v 21.841600 81.110397 -9.950787
v 20.258699 83.005402 -16.780687
v 22.229900 81.621193 24.734814
v 28.356100 79.483002 13.579413
v -21.750601 84.409790 29.895514
v -11.053400 74.020790 25.030910
v 3.489000 67.324089 31.188911
v 3.907400 75.466995 36.278912
v 15.916200 57.807396 19.353310
v 23.512600 63.094196 14.608610
v 16.815901 64.807198 0.066111
v 6.973400 58.823399 -6.304790
v 4.139900 63.632103 -17.999290
v 13.117300 72.092400 -19.779089
v 3.052100 56.340500 5.759709
v -0.009900 55.592098 -5.355891
v -26.958300 80.970291 27.624214
v -27.701900 70.273102 22.715111
v -18.002899 65.065399 8.340911
v -7.614000 64.321899 10.663410
v -24.699600 66.052498 -6.201489
v -16.556801 62.047504 -14.994590
v -10.402500 65.903709 -24.157389
v -12.540800 75.636604 -26.162489
v -34.216400 75.642303 -0.815088
v -28.929501 83.085800 -13.891287
v -36.431599 84.936897 12.276514
v -35.683201 73.821297 16.499611
vt 0.950000 0.000000
vt 0.750000 1.000000
vt 0.750000 0.000000
vt 1.150000 0.000000
vt 0.950000 1.000000
vt 0.350000 0.000000
vt 0.150000 1.000000
vt 0.150000 0.000000
vt 0.550000 1.000000
vt 0.350000 1.000000
vt 0.550000 0.000000
vt 0.793900 0.095500
vt 0.206100 0.095500
vt 0.024500 0.654500
vt 0.024500 0.654500
vt 0.500000 1.000000
vt 0.500000 1.000000
vt 0.206100 0.095500
vt 0.024500 0.654500
vt 0.793900 0.095500
vt 0.206100 0.095500
vt 0.975500 0.654500
vt 0.793900 0.095500
vt 0.975500 0.654500
vt 0.024500 0.654500
vt 0.500000 1.000000
vt 0.206100 0.095500
vt 0.793900 0.095500
vt 0.975500 0.654500
vt 0.024500 0.654500
vt 0.500000 1.000000
vt 0.206100 0.095500
vt 0.793900 0.095500
vt 0.975500 0.654500
vt 1.150000 1.000000
vt 0.500000 1.000000
vt 0.975500 0.654500
vt 0.024500 0.654500
vt 0.793900 0.095500
vt 0.975500 0.654500
vt 0.500000 1.000000
vt 0.206100 0.095500
vt 0.319100 -0.111800
vt 0.319100 0.111800
vt 0.180900 0.197200
vt 0.430900 0.180900
vt 0.397300 0.365700
vt 0.177100 0.174100
vt 0.180900 -0.197200
vt 0.319100 -0.111800
vt 0.319100 0.111800
vt 0.197200 0.430900
vt 0.378100 0.319100
vt 0.319100 0.111800
vt 0.000000 0.085400
vt -0.180900 0.197200
vt -0.319100 -0.111800
vt -0.430900 0.180900
vt -0.453600 0.254700
vt -0.258300 0.372000
vt 0.000000 0.085400
vt 0.319100 0.111800
vt 0.180900 -0.197200
vt -0.111800 0.378100
vt -0.197200 0.430900
vt -0.319100 0.111800
vt 0.180900 -0.197200
vt 0.319100 -0.111800
vt 0.319100 0.111800
vt -0.180900 -0.197200
vt -0.000000 -0.085400
vt -0.180900 0.197200
vt -0.319100 -0.111800
vt -0.180900 0.197200
vt 0.319100 -0.111800
vt 0.430900 -0.180900
vt 0.341100 -0.306700
vt 0.197200 -0.430900
vt 0.378100 -0.319100
vt 0.430900 -0.180900
vt 0.000000 -0.085400
vt 0.000000 0.085400
vt 0.180900 0.197200
vt -0.319100 -0.111800
vt -0.189100 -0.183500
vt -0.124900 -0.369500
vt -0.180900 -0.197200
vt -0.000000 -0.085400
vt -0.000000 0.085400
vt -0.180900 0.197200
vt 0.319100 -0.111800
vt 0.424900 -0.213000
vt 0.279500 -0.356600
vt 0.000000 0.085400
vt 0.000000 -0.085400
vt -0.319100 -0.111800
vt 0.180900 -0.197200
vt 0.180900 0.197200
vt -0.111800 0.378100
vt -0.111800 -0.378100
vt 0.180900 -0.197200
vt 0.000000 -0.085400
vt -0.000000 0.085400
vt 0.180900 0.197200
vt 0.111800 0.378100
vt -0.111800 0.378100
vt 0.180900 0.197200
vt 0.111800 -0.378100
vt 0.180900 -0.197200
vt -0.180900 0.197200
vt -0.111800 0.378100
vt 0.111800 0.378100
vt -0.111800 -0.378100
vt -0.180900 -0.197200
vt -0.111800 0.378100
vt 0.111800 0.378100
vt 0.000000 -0.085400
vt 0.111800 -0.378100
vt -0.180900 -0.197200
vt -0.111800 0.378100
vt 0.206000 0.487000
vt 0.180900 0.197200
vt 0.430900 0.180900
vt -0.319100 0.111800
vt -0.180900 -0.197200
vt -0.194100 0.172100
vt -0.319100 0.111800
vt 0.319100 -0.111800
vt -0.378100 0.319100
vt -0.430900 0.180900
vt -0.319100 -0.111800
vt -0.319100 0.111800
vt 0.124200 -0.448600
vt 0.111800 -0.378100
vt 0.217900 -0.157600
vt 0.319100 0.111800
vt -0.197200 -0.430900
vt -0.305200 -0.342300
vt -0.430900 -0.180900
vt -0.319100 0.111800
vt -0.319100 0.111800
vt -0.319100 -0.111800
vt 0.378100 -0.319100
vt 0.208900 -0.310700
vt -0.180900 -0.197200
vt -0.180900 0.197200
vt 0.111800 0.378100
vt 0.111800 -0.378100
vt 0.111800 0.378100
vt -0.111800 -0.378100
vt -0.111800 -0.378100
vt 0.111800 -0.378100
vt -0.111800 -0.378100
vt 0.111800 -0.378100
vt -0.111800 -0.378100
vt 0.111800 0.378100
vn 0.3651 0.0917 -0.9264
vn 0.9738 0.2267 0.0172
vn 0.9647 0.2631 0.0094
vn -0.7714 -0.1295 -0.6231
vn 0.0331 0.0208 -0.9992
vn -0.7741 -0.1397 0.6175
vn -0.9044 -0.1501 -0.3993
vn 0.0558 0.0290 0.9980
vn -0.9066 -0.1430 0.3970
vn 0.3785 0.1063 0.9195
vn -0.0000 -1.0000 -0.0000
vn 0.3690 0.0655 -0.9271
vn 0.9276 -0.3735 -0.0000
vn 0.9550 -0.2968 -0.0000
vn -0.5723 0.5692 -0.5904
vn 0.2959 -0.0493 -0.9540
vn -0.5723 0.5692 0.5904
vn -0.5825 0.5450 -0.6031
vn 0.2959 -0.0493 0.9540
vn -0.5825 0.5450 0.6031
vn 0.3690 0.0655 0.9271
vn 0.3861 -0.1324 -0.9129
vn 0.9953 -0.0973 0.0000
vn -0.6632 0.1866 -0.7248
vn -0.6632 0.1866 0.7248
vn 0.3861 -0.1324 0.9129
vn 0.2386 0.2174 -0.9465
vn 0.8408 0.5413 -0.0000
vn -0.6931 -0.2605 -0.6721
vn -0.6931 -0.2605 0.6721
vn 0.2386 0.2174 0.9465
vn -0.5904 0.8071 0.0000
vn 0.0036 0.1310 -0.9914
vn 0.8071 0.5904 0.0000
vn -0.6607 -0.3593 -0.6591
vn 0.0036 0.1310 0.9914
vn -0.6607 -0.3593 0.6591
vn 0.4686 0.8539 0.2264
vn 0.2798 0.9448 -0.1706
vn 0.2238 0.9174 -0.3289
vn 0.2828 0.3192 -0.9045
vn 0.1631 0.6747 -0.7198
vn 0.5229 0.6909 -0.4993
vn -0.1739 0.3906 -0.9040
vn -0.0169 0.6828 -0.7304
vn -0.2216 0.8738 -0.4328
vn -0.6147 0.2006 -0.7628
vn -0.0015 0.9889 -0.1486
vn -0.7517 0.6185 0.2290
vn -0.5012 0.4170 0.7582
vn -0.0834 0.6577 0.7486
vn -0.4243 0.8576 0.2908
vn -0.1069 -0.0632 0.9923
vn 0.4578 0.5232 0.7188
vn 0.4865 0.8075 0.3336
vn 0.7776 0.2541 0.5751
vn 0.8690 -0.3694 -0.3291
vn 0.8298 -0.2188 -0.5134
vn 0.6074 0.1789 -0.7739
vn 0.9725 -0.1910 0.1336
vn 0.9735 -0.1240 -0.1921
vn 0.8008 0.5315 0.2760
vn -0.2820 -0.6853 0.6715
vn 0.0971 -0.3829 0.9187
vn 0.8141 -0.5754 0.0787
vn 0.7214 -0.1446 0.6773
vn 0.4996 -0.8271 -0.2574
vn 0.3050 -0.7014 -0.6442
vn 0.5739 -0.5024 -0.6467
vn -0.0760 -0.9865 0.1449
vn -0.0063 -0.9906 -0.1369
vn -0.3030 -0.9187 0.2534
vn -0.3032 -0.8571 0.4165
vn 0.0893 0.0274 -0.9956
vn 0.3889 -0.1728 -0.9049
vn -0.7591 -0.1531 -0.6327
vn -0.4082 -0.1508 -0.9004
vn -0.4796 -0.7834 -0.3954
vn -0.9687 0.1447 0.2015
vn -0.8542 -0.4527 0.2558
vn -0.5165 -0.1324 0.8460
vn -0.8732 -0.4253 -0.2381
vn -0.9316 0.2440 -0.2694
vn 0.1687 0.9780 0.1229
vn 0.9034 0.4033 -0.1455
vn 0.4847 0.2245 0.8454
vn 0.6985 -0.6499 -0.2996
vn 0.3245 -0.8607 0.3923
vn -0.2117 -0.5873 -0.7812
vn -0.6952 0.6880 -0.2083
vn -0.5079 0.0504 0.8600
vn -0.8260 0.2017 0.5264
vn -0.3935 -0.2909 0.8721
vn -0.8819 0.2871 0.3739
vn -0.0724 -0.6775 0.7320
vn -0.3359 -0.7346 0.5895
vn -0.6579 -0.7379 -0.1504
s 1
f 2/1/1 4/2/2 1/3/3
f 5/4/4 3/5/5 2/1/1
f 7/6/6 6/7/7 5/8/4
f 7/6/6 10/9/8 8/10/9
f 9/11/10 4/2/2 10/9/8
f 7/12/11 5/13/11 2/14/11
f 3/15/12 17/16/13 4/17/14
f 6/18/15 16/19/16 3/15/12
f 8/20/17 18/21/18 6/18/15
f 8/20/17 20/22/19 19/23/20
f 10/24/21 17/16/13 20/22/19
f 17/16/13 21/25/22 22/26/23
f 16/19/16 23/27/24 21/25/22
f 19/23/20 23/27/24 18/21/18
f 20/22/19 24/28/25 19/23/20
f 17/16/13 25/29/26 20/22/19
f 22/26/23 26/30/27 27/31/28
f 21/25/22 28/32/29 26/30/27
f 24/28/25 28/32/29 23/27/24
f 25/29/26 29/33/30 24/28/25
f 22/26/23 30/34/31 25/29/26
f 2/1/1 3/5/5 4/2/2
f 5/4/4 6/35/7 3/5/5
f 7/6/6 8/10/9 6/7/7
f 7/6/6 9/11/10 10/9/8
f 9/11/10 1/3/3 4/2/2
f 1/36/11 9/37/11 2/14/11
f 9/37/11 7/12/11 2/14/11
f 3/15/12 16/19/16 17/16/13
f 6/18/15 18/21/18 16/19/16
f 8/20/17 19/23/20 18/21/18
f 8/20/17 10/24/21 20/22/19
f 10/24/21 4/17/14 17/16/13
f 17/16/13 16/19/16 21/25/22
f 16/19/16 18/21/18 23/27/24
f 19/23/20 24/28/25 23/27/24
f 20/22/19 25/29/26 24/28/25
f 17/16/13 22/26/23 25/29/26
f 22/26/23 21/25/22 26/30/27
f 21/25/22 23/27/24 28/32/29
f 24/28/25 29/33/30 28/32/29
f 25/29/26 30/34/31 29/33/30
f 22/26/23 27/31/28 30/34/31
f 12/38/32 14/39/32 15/40/32
f 27/31/28 12/38/33 11/41/34
f 28/32/29 12/38/33 26/30/27
f 29/33/30 13/42/35 28/32/29
f 29/33/30 15/40/36 14/39/37
f 27/31/28 15/40/36 30/34/31
f 15/40/32 11/41/32 12/38/32
f 12/38/32 13/42/32 14/39/32
f 27/31/28 26/30/27 12/38/33
f 28/32/29 13/42/35 12/38/33
f 29/33/30 14/39/37 13/42/35
f 29/33/30 30/34/31 15/40/36
f 27/31/28 11/41/34 15/40/36
f 33/43/38 34/44/39 35/45/40
f 39/46/41 40/47/42 37/48/43
f 43/49/44 44/50/45 40/51/42
f 48/52/46 44/53/45 45/54/47
f 36/55/48 48/56/46 49/57/49
f 53/58/50 54/59/51 50/60/52
f 56/61/53 58/62/54 53/63/50
f 33/64/38 32/65/55 59/66/56
f 63/67/57 64/68/58 38/69/59
f 66/70/60 62/71/61 60/72/62
f 56/61/53 68/73/63 70/74/64
f 72/75/65 66/76/60 65/77/66
f 74/78/67 75/79/68 76/80/69
f 77/81/70 78/82/71 74/83/67
f 81/84/72 82/85/73 68/86/63
f 78/82/71 77/81/70 82/87/73
f 42/88/74 41/89/75 76/90/69
f 88/91/76 86/92/77 84/93/78
f 89/94/79 90/95/80 79/96/81
f 88/91/76 87/97/82 46/98/83
f 48/56/46 35/45/40 44/99/45
f 54/100/51 32/101/55 31/102/84
f 61/103/85 37/104/43 34/105/39
f 65/106/66 57/107/86 70/74/64
f 63/67/57 66/70/60 73/108/87
f 82/87/73 77/81/70 71/109/88
f 84/110/78 85/111/89 75/112/68
f 87/97/82 81/113/72 90/95/80
f 43/49/44 42/88/74 86/114/77
f 49/115/49 47/116/90 46/98/83
f 55/117/91 52/118/92 67/119/93
f 64/120/58 76/90/69 41/89/75
f 36/55/48 31/102/84 35/45/40
f 31/102/84 32/101/55 35/45/40
f 32/101/55 33/43/38 35/45/40
f 35/121/40 34/105/39 40/47/42
f 34/105/39 37/48/43 40/47/42
f 37/48/43 38/69/59 39/46/41
f 40/51/42 39/122/41 42/88/74
f 39/122/41 41/89/75 42/88/74
f 42/88/74 43/49/44 40/51/42
f 44/53/45 43/123/44 45/54/47
f 45/54/47 46/98/83 47/116/90
f 47/116/90 48/52/46 45/54/47
f 48/56/46 47/124/90 49/57/49
f 49/57/49 50/125/52 36/55/48
f 50/125/52 31/102/84 36/55/48
f 50/60/52 49/115/49 53/58/50
f 49/115/49 51/126/94 52/127/92
f 53/58/50 49/115/49 52/127/92
f 54/128/51 53/63/50 58/62/54
f 53/63/50 55/117/91 56/61/53
f 56/61/53 57/107/86 58/62/54
f 58/129/54 57/130/86 32/65/55
f 57/130/86 59/66/56 32/65/55
f 59/66/56 60/72/62 33/64/38
f 38/69/59 37/104/43 61/103/85
f 61/103/85 62/71/61 38/69/59
f 62/71/61 63/67/57 38/69/59
f 62/71/61 61/103/85 60/72/62
f 60/72/62 59/66/56 66/70/60
f 59/66/56 65/131/66 66/70/60
f 56/61/53 55/117/91 67/119/93
f 67/119/93 68/73/63 56/61/53
f 68/73/63 69/132/95 70/74/64
f 70/133/64 69/134/95 65/77/66
f 69/134/95 71/135/88 65/77/66
f 71/135/88 72/75/65 65/77/66
f 64/68/58 63/67/57 76/80/69
f 63/67/57 73/108/87 76/80/69
f 73/108/87 74/78/67 76/80/69
f 74/83/67 73/136/87 77/81/70
f 73/136/87 72/75/65 71/109/88
f 77/81/70 73/136/87 71/109/88
f 68/86/63 67/137/93 79/138/81
f 79/138/81 80/139/96 68/86/63
f 80/139/96 81/84/72 68/86/63
f 82/87/73 81/84/72 78/82/71
f 81/84/72 83/140/97 84/110/78
f 78/82/71 81/84/72 84/110/78
f 76/90/69 75/141/68 42/88/74
f 75/141/68 85/142/89 42/88/74
f 85/142/89 86/114/77 42/88/74
f 86/92/77 85/143/89 84/93/78
f 84/93/78 83/144/97 88/91/76
f 83/144/97 87/97/82 88/91/76
f 80/145/96 79/96/81 90/95/80
f 79/96/81 52/127/92 51/146/94
f 89/94/79 79/96/81 51/146/94
f 90/95/80 89/94/79 87/97/82
f 89/94/79 46/98/83 87/97/82
f 46/98/83 45/54/47 88/91/76
f 36/55/48 35/45/40 48/56/46
f 35/45/40 40/147/42 44/99/45
f 31/102/84 50/125/52 54/100/51
f 54/100/51 58/148/54 32/101/55
f 34/105/39 33/64/38 60/72/62
f 60/72/62 61/103/85 34/105/39
f 59/149/56 57/107/86 65/106/66
f 57/107/86 56/61/53 70/74/64
f 62/71/61 66/70/60 63/67/57
f 66/70/60 72/150/65 73/108/87
f 71/109/88 69/134/95 82/87/73
f 69/134/95 68/151/63 82/87/73
f 74/83/67 78/82/71 75/112/68
f 78/82/71 84/110/78 75/112/68
f 83/152/97 81/113/72 87/97/82
f 81/113/72 80/145/96 90/95/80
f 86/114/77 88/153/76 43/49/44
f 88/153/76 45/154/47 43/49/44
f 46/98/83 89/94/79 51/146/94
f 51/146/94 49/115/49 46/98/83
f 53/63/50 52/118/92 55/117/91
f 52/118/92 79/155/81 67/119/93
f 41/89/75 39/122/41 64/120/58
f 39/122/41 38/156/59 64/120/58
